<svg height="15" viewBox="0 0 54 60" width="15" xmlns="http://www.w3.org/2000/svg"><g id="Page-1" fill="none" fill-rule="evenodd"><g id="053---Follow-Podcast" fill-rule="nonzero" transform="translate(-1 -1)"><path id="Shape" d="m54 28c-.0025742 12.5523216-8.9727001 23.3105823-21.32 25.57l-4.68 6.43-4.68-6.43c-13.52668441-2.4752324-22.78686598-15.0553883-21.13075748-28.7065887s13.65574478-23.65220102 27.38190418-22.82122849 24.4316732 12.20652789 24.4288533 25.95781719z" fill="#02a9f4"/><path id="Shape" d="m28 2c-.5 0-1 0-1.5.05 13.119528.78328884 23.5913822 11.2340934 24.4010678 24.3520187.8096857 13.1179254-8.2974539 24.7772159-21.2210678 27.1679813l-3.18 4.37 1.5 2.06 4.68-6.43c13.2155171-2.4337607 22.3991273-14.5371173 21.1846365-27.919871-1.2144907-13.3827537-12.4268963-23.635163-25.8646365-23.650129z" fill="#0377bc"/><circle id="Oval" cx="32.01" cy="20" fill="#ffdc00" r="9"/><path id="Shape" d="m32 11c-.5026938.0026779-1.0043408.046154-1.5.13 4.3191604.7421807 7.4758281 4.4875373 7.4758281 8.87s-3.1566677 8.1278193-7.4758281 8.87c.4956592.083846.9973062.1273221 1.5.13 4.9705627-.0000001 8.9999998-4.0294373 8.9999998-9s-4.0294371-8.9999999-8.9999998-9z" fill="#fec108"/><path id="Shape" d="m46.43 37c-3.1037826 4.9833211-8.5591435 8.0125031-14.43 8.0125031s-11.3262174-3.029182-14.43-8.0125031c1.83-3.91 5.8-8 14.43-8s12.6 4.08 14.43 8z" fill="#ffdc00"/><path id="Shape" d="m32 29c-.52 0-1 0-1.5 0 7.6.45 11.21 4.27 12.93 8-2.8265243 4.5261709-7.6142765 7.4625108-12.93 7.93.49 0 1 .07 1.5.07 5.8683881.0026904 11.3232066-3.021464 14.43-8-1.83-3.92-5.8-8-14.43-8z" fill="#fec108"/><path id="Shape" d="m17 27h-4v-4c0-.5522847-.4477153-1-1-1s-1 .4477153-1 1v4h-4c-.55228475 0-1 .4477153-1 1s.44771525 1 1 1h4v4c0 .5522847.4477153 1 1 1s1-.4477153 1-1v-4h4c.5522847 0 1-.4477153 1-1s-.4477153-1-1-1z" fill="#f5f5f5"/><g fill="#000"><path id="Shape" d="m22.74 54.48 4.45 6.11c.1880653.2597632.4893047.4135701.81.4135701s.6219347-.1538069.81-.4135701l4.45-6.11c13.6220875-2.7056241 22.969698-15.3038699 21.610359-29.12537-1.3593389-13.8215002-12.9821745-24.35731113-26.870359-24.35731113s-25.51102011 10.53581093-26.87035905 24.35731113c-1.35933893 13.8215001 7.98827156 26.4197459 21.61035905 29.12537zm5.26-51.48c12.9281654.00469645 23.7202641 9.8654146 24.8886184 22.7406789s-7.6724733 24.5175547-20.3886184 26.8493211c-.2521911.0445349-.4776852.1841265-.63.39l-3.87 5.32-3.87-5.3c-.1523148-.2058735-.3778089-.3454651-.63-.39-12.7690981-2.2816319-21.67212185-13.9503206-20.50033439-26.8686264 1.17178747-12.9183057 12.02910169-22.79458319 25.00033439-22.7413736z"/><path id="Shape" d="m32 46c6.2203458.0185994 12.0048674-3.1916587 15.28-8.48.197562-.2985613.2204458-.6799582.06-1-1.9180867-4.145787-5.7074232-7.1207323-10.19-8 3.854252-2.3125771 5.6919678-6.9125558 4.4921427-11.2442635-1.1998251-4.3317076-5.1423378-7.33064029-9.6371427-7.33064029s-8.4373176 2.99893269-9.6371427 7.33064029c-1.1998251 4.3317077.6378907 8.9316864 4.4921427 11.2442635-4.4849237.8793992-8.2772775 3.8537943-10.2 8-.1604458.3200418-.137562.7014387.06 1 3.2751326 5.2883413 9.0596542 8.4985994 15.28 8.48zm-8-26c0-4.418278 3.581722-8 8-8s8 3.581722 8 8-3.581722 8-8 8-8-3.581722-8-8zm8 10c6.45 0 10.91 2.33 13.28 6.92-2.9721877 4.4228714-7.9512393 7.0757857-13.28 7.0757857s-10.3078123-2.6529143-13.28-7.0757857c2.37-4.59 6.83-6.92 13.28-6.92z"/></g></g></g></svg>