<svg id="Layer_1" enable-background="new 0 0 512 512" height="15" viewBox="0 0 512 512" fill="#f00" width="15" xmlns="http://www.w3.org/2000/svg"><path d="m203.483 169.377c-4.143 0-7.5 3.358-7.5 7.5v31.029c0 7.496 6.166 13.594 13.746 13.594h13.4c4.143 0 7.5-3.358 7.5-7.5s-3.357-7.5-7.5-7.5h-12.146v-29.623c0-4.142-3.357-7.5-7.5-7.5z"/><path d="m146.027 167.231v22.03c0 4.142 3.357 7.5 7.5 7.5s7.5-3.358 7.5-7.5v-22.03c0-4.142-3.357-7.5-7.5-7.5-4.142 0-7.5 3.358-7.5 7.5z"/><path d="m264.851 167.231v22.03c0 4.142 3.357 7.5 7.5 7.5s7.5-3.358 7.5-7.5v-22.03c0-4.142-3.357-7.5-7.5-7.5s-7.5 3.358-7.5 7.5z"/><path d="m461.181 348.429c-2.524-3.282-7.235-3.896-10.518-1.371-3.283 2.526-3.896 7.235-1.371 10.518 11.72 15.233 17.914 33.455 17.914 52.696 0 47.822-39.072 86.728-87.099 86.728-48.025 0-87.098-38.906-87.098-86.728s39.072-86.728 87.098-86.728c15.917 0 31.486 4.312 45.023 12.47 3.546 2.138 8.157.996 10.295-2.553 2.138-3.548.995-8.157-2.553-10.295-15.874-9.566-34.12-14.622-52.766-14.622-29.068 0-55.338 12.167-73.949 31.658h-41.15-13.582v-18.677c11.566-2.817 22.598-7.538 32.657-14.064 3.475-2.255 4.464-6.899 2.21-10.374-2.255-3.475-6.899-4.462-10.374-2.21-14.841 9.628-32.15 14.718-50.06 14.718h-25.841c-49.895 0-90.486-39.575-90.486-88.219v-63.482c0-25.306 9.778-44.474 29.062-56.974 17.523-11.358 43.232-17.362 74.345-17.362 31.112 0 56.82 6.003 74.343 17.362 19.285 12.5 29.064 31.669 29.064 56.974v63.482c0 18.493-5.805 36.196-16.786 51.193-2.446 3.342-1.721 8.035 1.621 10.482 3.342 2.446 8.033 1.721 10.482-1.621 8.535-11.658 14.385-24.717 17.372-38.516h9.93c15.373 0 27.88-12.204 27.88-27.204v-23.854c0-15.001-12.507-27.204-27.88-27.204h-7.619v-84.167c0-29.633-24.19-53.742-53.924-53.742-7.708 0-15.039 1.627-21.676 4.545-10.648-20.039-31.313-31.288-59.586-31.288h-24.77c-42.379 0-76.857 34.356-76.857 76.585v88.068h-7.616c-15.375 0-27.883 12.204-27.883 27.204v23.854c0 15 12.508 27.204 27.883 27.204h9.934c8.385 38.494 38.764 69.111 77.603 78.608v18.679h-13.583-74.481c-31.206 0-56.595 24.85-56.595 55.395v70.802c0 7.644 6.262 13.862 13.959 13.862h48.247c4.143 0 7.5-3.358 7.5-7.5s-3.357-7.5-7.5-7.5h-47.206v-69.664c0-22.273 18.659-40.395 41.595-40.395h68.172c6.086 26.52 30.07 45.78 58.379 45.78s52.294-19.261 58.378-45.78h22.983c-10.303 15.882-16.291 34.792-16.291 55.069 0 20.244 5.967 39.123 16.238 54.989h-167.249c-4.143 0-7.5 3.358-7.5 7.5s3.357 7.5 7.5 7.5h179.084c18.616 19.538 44.916 31.74 74.024 31.74 56.298 0 102.099-45.635 102.099-101.728 0-22.58-7.271-43.964-21.025-61.843zm-129.835-127.053v-28.906-12.816h7.619c7.102 0 12.88 5.475 12.88 12.204v23.854c0 6.729-5.778 12.204-12.88 12.204h-7.846c.139-2.171.227-4.349.227-6.54zm-53.924-179.633c21.463 0 38.924 17.38 38.924 38.742v27.273c-5.481-7.456-12.449-13.945-20.904-19.425-9.034-5.855-19.575-10.414-31.534-13.677v-6.985c0-8.106-.935-15.581-2.73-22.38 4.946-2.273 10.447-3.548 16.244-3.548zm-167.89 34.842c0-33.958 27.749-61.585 61.858-61.585h24.77c34.015 0 52.748 18.706 52.748 52.671v3.692c-11.012-1.866-23.015-2.805-35.968-2.805-34.502 0-62.26 6.653-82.503 19.774-8.455 5.48-15.423 11.968-20.904 19.425v-31.172zm-22.616 151.33c-7.104 0-12.883-5.475-12.883-12.204v-23.854c0-6.73 5.779-12.204 12.883-12.204h7.616v12.816 28.906c0 2.197.079 4.376.218 6.539h-7.834zm126.023 158.067c-20.015 0-37.15-12.757-42.858-30.78h11.872c4.143 0 7.5-3.358 7.5-7.5v-23.623c3.476.34 7 .516 10.566.516h25.841c3.546 0 7.07-.185 10.566-.526v23.634c0 4.142 3.357 7.5 7.5 7.5h11.871c-5.708 18.022-22.843 30.779-42.858 30.779z"/><path d="m433.406 376.304-19.332-19.332c-2.047-2.046-4.768-3.173-7.663-3.173-2.899 0-5.626 1.129-7.681 3.182l-18.432 18.432-18.056-18.055c-2.047-2.048-4.769-3.175-7.665-3.175-2.899 0-5.628 1.13-7.68 3.183l-19.697 19.696c-4.228 4.232-4.232 11.113-.007 15.342l18.058 18.057-18.431 18.431c-2.048 2.046-3.179 4.767-3.185 7.66-.006 2.903 1.121 5.633 3.174 7.685l19.332 19.332c2.047 2.047 4.769 3.174 7.664 3.173 2.9 0 5.628-1.13 7.68-3.182l18.432-18.432 18.06 18.06c2.047 2.044 4.767 3.17 7.66 3.17 2.9 0 5.629-1.13 7.682-3.183l19.694-19.694c2.046-2.046 3.177-4.766 3.183-7.657.007-2.905-1.12-5.636-3.172-7.686l-18.059-18.058 18.433-18.433c4.232-4.233 4.236-11.115.008-15.343zm-34.351 28.473c-2.929 2.929-2.929 7.678 0 10.606l20.421 20.421-13.835 13.835-20.42-20.421c-1.407-1.407-3.314-2.197-5.304-2.197-1.989 0-3.896.79-5.304 2.197l-20.805 20.805-13.453-13.453 20.806-20.806c1.406-1.407 2.196-3.314 2.196-5.303s-.79-3.897-2.197-5.303l-20.421-20.421 13.835-13.834 20.422 20.421c2.928 2.93 7.677 2.929 10.606 0l20.805-20.805 13.453 13.453z"/><path d="m167.861 269.582c-1.721 3.768-.061 8.217 3.707 9.938 3.767 1.721 8.216.061 9.938-3.707 5.594-12.249 17.932-20.164 31.433-20.164 13.5 0 25.839 7.915 31.434 20.164 1.26 2.757 3.981 4.386 6.827 4.386 1.042 0 2.102-.219 3.111-.68 3.768-1.721 5.427-6.17 3.706-9.939-8.028-17.575-25.722-28.932-45.078-28.932-19.357.002-37.051 11.359-45.078 28.934z"/></svg>