<?xml version="1.0" encoding="iso-8859-1"?>
<!-- Generator: Adobe Illustrator 19.0.0, SVG Export Plug-In . SVG Version: 6.00 Build 0)  -->
<svg version="1.1" id="Layer_1" xmlns="http://www.w3.org/2000/svg" xmlns:xlink="http://www.w3.org/1999/xlink" x="0px" y="0px"
	 viewBox="0 0 512.01 512.01" style="enable-background:new 0 0 512.01 512.01;" xml:space="preserve">
<g>
	<g>
		<path fill="#000" d="M277.988,311.348c-4.569-7.818-12.929-12.64-21.983-12.682c-14.138,0.065-25.547,11.58-25.482,25.718
			c0.042,9.055,4.864,17.414,12.682,21.983l4.267,2.475V384c0,4.713,3.82,8.533,8.533,8.533c4.713,0,8.533-3.82,8.533-8.533v-35.157
			l4.267-2.475C281.011,339.234,285.123,323.555,277.988,311.348z"/>
	</g>
</g>
<g>
	<g>
		<path fill="#09CA00" d="M392.538,238.933c-9.703-12.938-21.196-24.43-34.133-34.133V102.4c0-56.554-45.846-102.4-102.4-102.4
			c-56.554,0-102.4,45.846-102.4,102.4v102.4C78.2,261.354,62.918,368.328,119.472,443.733S283,534.421,358.405,477.867
			S449.092,314.339,392.538,238.933z M204.805,102.4c0-28.277,22.923-51.2,51.2-51.2s51.2,22.923,51.2,51.2v76.117l-2.389-0.683
			l-3.243-0.853c-3.982-1.138-8.021-2.105-12.117-2.901l-2.645-0.512c-4.693-0.853-9.472-1.536-14.251-1.963h-0.768
			c-5.12-0.939-10.411-0.939-15.787-0.939c-5.376,0-10.581,0-15.872,0.768h-1.195c-4.693,0.427-9.387,1.109-13.995,1.963
			l-2.816,0.512c-4.039,0.796-8.021,1.735-11.947,2.816l-3.328,0.939l-2.389,0.683L204.805,102.4z M256.005,443.733
			c-56.554,0-102.4-45.846-102.4-102.4c0-56.554,45.846-102.4,102.4-102.4c56.554,0,102.4,45.846,102.4,102.4
			C358.405,397.887,312.559,443.733,256.005,443.733z"/>
	</g>
</g>
<g>
	<g>
		<path fill="#BDFF0B" d="M256.005,256c-47.128,0-85.333,38.205-85.333,85.333s38.205,85.333,85.333,85.333s85.333-38.205,85.333-85.333
			S303.133,256,256.005,256z M290.138,349.867c-2.426,3.234-5.299,6.108-8.533,8.533V384c0,14.138-11.462,25.6-25.6,25.6
			c-14.138,0-25.6-11.462-25.6-25.6v-25.6c-18.851-14.138-22.672-40.882-8.533-59.733s40.882-22.672,59.733-8.533
			S304.277,331.015,290.138,349.867z"/>
	</g>
</g>
<g>
</g>
<g>
</g>
<g>
</g>
<g>
</g>
<g>
</g>
<g>
</g>
<g>
</g>
<g>
</g>
<g>
</g>
<g>
</g>
<g>
</g>
<g>
</g>
<g>
</g>
<g>
</g>
<g>
</g>
</svg>
