<?xml version="1.0" encoding="iso-8859-1"?>
<!-- Generator: Adobe Illustrator 19.0.0, SVG Export Plug-In . SVG Version: 6.00 Build 0)  -->
<svg version="1.1" id="Capa_1" xmlns="http://www.w3.org/2000/svg" xmlns:xlink="http://www.w3.org/1999/xlink" x="0px" y="0px"
	 viewBox="0 0 512 512" style="enable-background:new 0 0 512 512;" xml:space="preserve">
<g>
	<g>
		<g>
			<circle fill="#000" cx="256" cy="181.333" r="74.667"/>
			<path fill="#30BF0B" d="M141.346,307.865c-21.396,11.094-34.677,32.948-34.677,57.042v9.76c0,16.906,13.677,30.667,30.479,30.667h237.708
				c16.802,0,30.479-13.76,30.479-30.667v-9.76c0-24.094-13.281-45.948-34.677-57.042c-26.854-13.927-68.552-30.531-114.656-30.531
				S168.2,293.938,141.346,307.865z"/>
			<path fill="#000fff" d="M325.853,9.698l-1.079-0.16c-0.314-0.119-0.56-0.344-0.889-0.434C301.895,3.063,279.051,0,255.999,0
				c-4.281,0-8.156,2.563-9.823,6.51c-1.667,3.948-0.813,8.51,2.167,11.583l56.448,58.219c2.042,2.104,4.813,3.24,7.656,3.24
				c1.052,0,2.104-0.156,3.135-0.469c3.833-1.188,6.688-4.417,7.375-8.365l2.814-16.167
				c103.535,35.969,167.703,148.236,134.966,261.552c-20.951,72.523-80.965,127.24-153.852,146.889l-5.523,1.49
				c-5.689,1.534-9.056,7.389-7.522,13.077l5.557,20.598c1.534,5.689,7.391,9.056,13.078,7.52l2.617-0.706
				c95.628-25.816,172.496-101.413,191.893-198.546C533.609,173.117,451.431,45.359,325.853,9.698z"/>
			<path fill="#671B0C" d="M207.21,435.688c-2.042-2.104-4.813-3.24-7.656-3.24c-1.052,0-2.104,0.156-3.135,0.469
				c-3.833,1.188-6.688,4.417-7.375,8.365l-2.814,16.167C82.694,421.479,18.526,309.212,51.263,195.895
				c20.951-72.523,80.965-127.238,153.852-146.889l5.523-1.488c5.689-1.534,9.056-7.389,7.522-13.078l-5.557-20.598
				c-1.535-5.688-7.391-9.055-13.078-7.52l-2.617,0.707C101.28,32.845,24.412,108.44,5.013,205.574
				c-26.621,133.309,55.555,261.066,181.134,296.728l1.079,0.16c0.314,0.118,0.56,0.344,0.889,0.434
				c21.99,6.042,44.833,9.104,67.885,9.104c4.281,0,8.156-2.563,9.823-6.51c1.667-3.948,0.813-8.51-2.167-11.583L207.21,435.688z"/>
		</g>
	</g>
</g>
<g>
</g>
<g>
</g>
<g>
</g>
<g>
</g>
<g>
</g>
<g>
</g>
<g>
</g>
<g>
</g>
<g>
</g>
<g>
</g>
<g>
</g>
<g>
</g>
<g>
</g>
<g>
</g>
<g>
</g>
</svg>
