<svg height="24px" viewBox="-54 0 512 512.001" width="24px" xmlns="http://www.w3.org/2000/svg"><path d="m329.46875 85.457031h-34.894531v326.433594c0 6.386719-5.175781 11.5625-11.5625 11.5625h-176.46875v76.984375c0 6.386719 5.179687 11.5625 11.566406 11.5625h274.539063c6.382812 0 11.5625-5.175781 11.5625-11.5625v-340.242188zm0 0" fill="#e6e2e6"/><path d="m106.542969 457.449219h179.558593c23.417969 0 42.472657-19.050781 42.472657-42.46875v-329.523438h-34v326.433594c0 6.382813-5.175781 11.5625-11.5625 11.5625h-176.46875zm0 0" fill="#d8d1d7"/><path d="m341.035156 160.195312h63.175782l-74.742188-74.738281v63.175781c0 6.386719 5.179688 11.5625 11.566406 11.5625zm0 0" fill="#d8d1d7"/><path d="m355.644531 465.996094h-201.429687c-4.265625 0-7.726563-3.457032-7.726563-7.726563 0-4.265625 3.457031-7.726562 7.726563-7.726562h201.425781c4.269531 0 7.730469 3.460937 7.730469 7.726562 0 4.269531-3.460938 7.726563-7.726563 7.726563zm0 0" fill="#cac0c9"/><path d="m329.46875 184.210938h-34.894531v15.453124h34.894531c4.269531 0 7.730469-3.457031 7.730469-7.726562-.003907-4.265625-3.460938-7.726562-7.730469-7.726562zm0 0" fill="#cac0c9"/><path d="m355.644531 222.257812h-61.070312v15.457032h61.070312c4.265625 0 7.726563-3.460938 7.726563-7.730469 0-4.265625-3.460938-7.726563-7.726563-7.726563zm0 0" fill="#cac0c9"/><path d="m355.644531 260.308594h-61.070312v15.453125h61.070312c4.265625 0 7.726563-3.460938 7.726563-7.726563 0-4.269531-3.460938-7.726562-7.726563-7.726562zm0 0" fill="#cac0c9"/><path d="m355.644531 298.355469h-61.070312v15.453125h61.070312c4.265625 0 7.726563-3.460938 7.726563-7.726563 0-4.269531-3.460938-7.726562-7.726563-7.726562zm0 0" fill="#cac0c9"/><path d="m355.644531 336.402344h-61.070312v15.453125h61.070312c4.265625 0 7.726563-3.457031 7.726563-7.726563 0-4.269531-3.460938-7.726562-7.726563-7.726562zm0 0" fill="#cac0c9"/><path d="m355.644531 374.449219h-61.070312v15.453125h61.070312c4.265625 0 7.726563-3.457032 7.726563-7.726563 0-4.265625-3.460938-7.726562-7.726563-7.726562zm0 0" fill="#cac0c9"/><path d="m355.644531 412.496094h-61.097656c-.320313 6.101562-5.351563 10.957031-11.535156 10.957031h-4.953125c1.222656 2.652344 3.898437 4.496094 7.011718 4.496094h70.574219c4.265625 0 7.726563-3.457031 7.726563-7.726563 0-4.269531-3.460938-7.726562-7.726563-7.726562zm0 0" fill="#cac0c9"/><path d="m222.925781 0h-211.359375c-6.390625 0-11.566406 5.175781-11.566406 11.5625v403.417969c0 6.386719 5.175781 11.5625 11.566406 11.5625h274.535156c6.386719 0 11.566407-5.175781 11.566407-11.5625v-340.242188zm0 0" fill="#e6e2e6"/><path d="m30.90625 414.980469v-403.417969c0-6.386719 5.179688-11.5625 11.566406-11.5625h-30.90625c-6.386718 0-11.566406 5.175781-11.566406 11.5625v403.417969c0 6.386719 5.175781 11.5625 11.566406 11.5625h30.90625c-6.386718 0-11.566406-5.175781-11.566406-11.5625zm0 0" fill="#d8d1d7"/><path d="m234.488281 74.738281h63.179688l-74.742188-74.738281v63.175781c0 6.386719 5.175781 11.5625 11.5625 11.5625zm0 0" fill="#d8d1d7"/><g fill="#cac0c9"><path d="m253.832031 63.175781v-32.269531l-30.90625-30.90625v63.175781c0 6.386719 5.175781 11.566407 11.5625 11.566407h30.910157c-6.386719-.003907-11.566407-5.179688-11.566407-11.566407zm0 0"/><path d="m360.378906 148.632812v-32.269531l-30.910156-30.90625v63.175781c0 6.386719 5.179688 11.566407 11.566406 11.566407h30.90625c-6.386718-.003907-11.5625-5.179688-11.5625-11.566407zm0 0"/><path d="m222.925781 114.210938h-149.082031c-4.265625 0-7.726562-3.460938-7.726562-7.730469 0-4.265625 3.457031-7.726563 7.726562-7.726563h149.082031c4.265625 0 7.726563 3.460938 7.726563 7.726563 0 4.269531-3.460938 7.730469-7.726563 7.730469zm0 0"/><path d="m249.097656 152.257812h-201.425781c-4.269531 0-7.726563-3.460937-7.726563-7.726562 0-4.269531 3.457032-7.726562 7.726563-7.726562h201.425781c4.269532 0 7.726563 3.457031 7.726563 7.726562 0 4.265625-3.457031 7.726562-7.726563 7.726562zm0 0"/><path d="m249.097656 190.304688h-201.425781c-4.269531 0-7.726563-3.460938-7.726563-7.726563 0-4.269531 3.457032-7.726563 7.726563-7.726563h201.425781c4.269532 0 7.726563 3.457032 7.726563 7.726563 0 4.265625-3.457031 7.726563-7.726563 7.726563zm0 0"/><path d="m249.097656 228.351562h-201.425781c-4.269531 0-7.726563-3.457031-7.726563-7.726562 0-4.265625 3.457032-7.726562 7.726563-7.726562h201.425781c4.269532 0 7.726563 3.457031 7.726563 7.726562 0 4.265625-3.457031 7.726562-7.726563 7.726562zm0 0"/><path d="m249.097656 266.398438h-201.425781c-4.269531 0-7.726563-3.457032-7.726563-7.726563s3.457032-7.726563 7.726563-7.726563h201.425781c4.269532 0 7.726563 3.457032 7.726563 7.726563s-3.457031 7.726563-7.726563 7.726563zm0 0"/><path d="m249.097656 304.445312h-201.425781c-4.269531 0-7.726563-3.457031-7.726563-7.726562 0-4.265625 3.457032-7.726562 7.726563-7.726562h201.425781c4.269532 0 7.726563 3.460937 7.726563 7.726562 0 4.269531-3.457031 7.726562-7.726563 7.726562zm0 0"/><path d="m249.097656 342.492188h-201.425781c-4.269531 0-7.726563-3.457032-7.726563-7.726563 0-4.265625 3.457032-7.726563 7.726563-7.726563h201.425781c4.269532 0 7.726563 3.460938 7.726563 7.726563 0 4.269531-3.457031 7.726563-7.726563 7.726563zm0 0"/><path d="m249.097656 380.542969h-201.425781c-4.269531 0-7.726563-3.460938-7.726563-7.726563 0-4.269531 3.457032-7.726562 7.726563-7.726562h201.425781c4.269532 0 7.726563 3.457031 7.726563 7.726562 0 4.265625-3.457031 7.726563-7.726563 7.726563zm0 0"/></g></svg>