<svg id="Capa_1" enable-background="new 0 0 497 497" height="24px" viewBox="0 0 497 497" width="24px" xmlns="http://www.w3.org/2000/svg"><path d="m451.992 279.175c27.904-29.651 45.008-69.58 45.008-113.508 0-91.496-74.171-165.667-165.667-165.667 0 0 3.602 331.274 3.602 331.274 28.205-.604 54.67-8.242 77.711-21.248 14.27 13.221 33.366 21.307 54.354 21.307 10.61 0 20.735-2.07 30-5.821-20.765-8.406-37.188-25.281-45.008-46.337z" fill="#28abfa"/><path d="m467 165.667c0-91.496-60.74-165.667-135.667-165.667-91.495 0-165.666 74.171-165.666 165.667 0 91.495 74.171 165.667 165.667 165.667 1.206 0 2.403-.033 3.602-.059 73.261-2.333 132.064-75.584 132.064-165.608z" fill="#4fdbff"/><path d="m298.695 298.695-133.028 198.305c91.495 0 165.667-74.171 165.667-165.667z" fill="#c4f3ff"/><path d="m301.334 331.333c0-11.173-.912-22.085-2.639-32.638l-133.028-133.028c-91.496 0-165.667 74.171-165.667 165.666 0 43.929 17.104 83.858 45.008 113.508-7.82 21.056-24.243 37.931-45.008 46.338 9.265 3.751 19.39 5.821 30 5.821 20.988 0 40.083-8.086 54.354-21.307 24.021 13.56 51.761 21.307 81.313 21.307 74.927 0 135.667-74.171 135.667-165.667z" fill="#c4f3ff"/><path d="m165.667 165.667 135.639 162.945c9.739 1.783 19.773 2.722 30.028 2.722-.001-91.496-74.172-165.667-165.667-165.667z" fill="#14cfff"/><path d="m165.667 165.667c0 81.241 58.48 148.816 135.639 162.945-1.192-90.239-61.458-162.945-135.639-162.945z" fill="#8ae7ff"/></svg>