<svg height="24px" viewBox="0 0 55 60" width="24px" xmlns="http://www.w3.org/2000/svg"><g id="Page-1" fill="none" fill-rule="evenodd"><g id="064---Replay-Podcast" transform="translate(0 -1)"><path id="Shape" d="m33 29v-6.22" stroke="#428dff" stroke-linejoin="round" stroke-width="2"/><path id="Shape" d="m26.22 16h-4.22" stroke="#428dff" stroke-linecap="round" stroke-linejoin="round" stroke-width="2"/><path id="Shape" d="m26.22 12h-4.22" stroke="#428dff" stroke-linecap="round" stroke-linejoin="round" stroke-width="2"/><path id="Shape" d="m28.3 20h-6.3" stroke="#428dff" stroke-linecap="round" stroke-linejoin="round" stroke-width="2"/><path id="Shape" d="m33 24h-11" stroke="#428dff" stroke-linecap="round" stroke-linejoin="round" stroke-width="2"/><g fill-rule="nonzero"><path id="Shape" d="m29 58v2h-20v-2c0-1.1045695.8954305-2 2-2h16c1.1045695 0 2 .8954305 2 2z" fill="#cad9fc"/><path id="Shape" d="m27 56h-3c1.1045695 0 2 .8954305 2 2v2h3v-2c0-1.1045695-.8954305-2-2-2z" fill="#a4c2f7"/><path id="Rectangle-path" d="m17 50h4v6h-4z" fill="#cad9fc"/><path id="Shape" d="m23 45.73v3.27c0 .5522847-.4477153 1-1 1h-6c-.5522847 0-1-.4477153-1-1v-3.27c.9896688.1813347 1.993857.2717116 3 .27h2c1.006143.0017116 2.0103312-.0886653 3-.27z" fill="#cad9fc"/><path id="Shape" d="m37 29c-.0015495 8.2303927-5.8987756 15.2775779-14 16.73-.9896688.1813347-1.993857.2717116-3 .27h-2c-1.006143.0017116-2.0103312-.0886653-3-.27-8.10122438-1.4524221-13.99845047-8.4996073-14-16.73 0-1.1045695.8954305-2 2-2s2 .8954305 2 2c0 7.1797017 5.8202983 13 13 13h2c7.1797017 0 13-5.8202983 13-13 0-1.1045695.8954305-2 2-2s2 .8954305 2 2z" fill="#e8edfc"/><path id="Shape" d="m35 27c-.5760361.0032504-1.1226995.2547156-1.5.69.3192922.3620202.496881.827303.5 1.31.0410584 9.2119777-7.2909003 16.7661169-16.5 17.0000239l.5-.0000239h2c1.006143.0017116 2.0103312-.0886653 3-.27 8.1012244-1.4524221 13.9984505-8.4996073 14-16.73 0-1.1045695-.8954305-2-2-2z" fill="#cad9fc"/><path id="Shape" d="m33 28v1c0 7.1797017-5.8202983 13-13 13h-2c-7.1797017 0-13-5.8202983-13-13v-1z" fill="#cad9fc"/><path id="Shape" d="m30 28v1c.0051711 6.9888872-5.5162821 12.7311985-12.5 13h.5 2c7.1797017 0 13-5.8202983 13-13v-1z" fill="#a4c2f7"/><path id="Shape" d="m33 29v-13c0-7.7319865-6.2680135-14-14-14s-14 6.2680135-14 14v13z" fill="#e8edfc"/><path id="Shape" d="m19 2c-.5010337.00119028-1.0016819.02789151-1.5.08 7.1104461.76624429 12.5003009 6.76838662 12.5 13.92v13h3v-13c0-7.7319865-6.2680135-14-14-14z" fill="#cad9fc"/><path id="Shape" d="m1 29c.00154953 8.2303927 5.89877562 15.2775779 14 16.73v3.27c0 .5522847.4477153 1 1 1h1v6h3v-6h-1c-.5522847 0-1-.4477153-1-1v-3.27c-8.10122438-1.4524221-13.99845047-8.4996073-14-16.73.00311901-.482697.18070784-.9479798.5-1.31-.54861363-.6221084-1.42428963-.8410235-2.20111491-.5502689s-1.29356455 1.0308309-1.29888509 1.8602689z" fill="#fff"/><path id="Shape" d="m12 58c0-1.1045695.8954305-2 2-2h-3c-1.1045695 0-2 .8954305-2 2v2h3z" fill="#fff"/><path id="Shape" d="m5 27.28c.6169405-.3562079 1.3767843-.3573625 1.9948044-.0030309.61802011.3543315 1.0009106 1.0106537 1.0051956 1.7230309v-13c-.00030093-7.15161338 5.3895539-13.15375571 12.5-13.92-.9972418-.10503752-2.0027582-.10503752-3 0-7.1104461.76624429-12.50030093 6.76838662-12.5 13.92z" fill="#fff"/><path id="Shape" d="m3.76 36.25-1.76.91c-1.28772093-2.5291102-1.97226957-5.3220686-2-8.16h2c.01425762 2.5207276.61692413 5.0033028 1.76 7.25z" fill="#fff"/><path id="Shape" d="m1.5 34c-.55228475 0-1-.4477153-1-1s.44771525-1 1-1 1 .4477153 1 1-.44771525 1-1 1z" fill="#428dff"/><path id="Shape" d="m0 29c0 .5522847.44771525 1 1 1s1-.4477153 1-1 .44771525-1 1-1 1 .4477153 1 1c.00155564 1.1231101.14263609 2.2416765.42 3.33-.00485594.0230807-.00485594.0469193 0 .07 1.55965121 6.2298291 7.1579067 10.5996014 13.58 10.6h2c6.4183649-.0049834 12.0112557-4.3737853 13.57-10.6.0048559-.0230807.0048559-.0469193 0-.07.2807364-1.0878993.4251767-2.2064723.43-3.33 0-.5522847.4477153-1 1-1s1 .4477153 1 1c0 4.2434638-1.6857094 8.3131264-4.6862915 11.3137085s-7.0702447 4.6862915-11.3137085 4.6862915h-2c-2.9489136-.0126639-5.8375589-.8360143-8.35-2.38-.62482768-.3833664-1.22592275-.804133-1.8-1.26-.55805981-.4729887-1.08577136-.9806605-1.58-1.52-1.00388166-1.0706064-1.8491417-2.2795639-2.51-3.59-.24578828-.4883422-.83819298-.6887799-1.33-.45-.2390587.1215967-.41925177.334127-.5001072.5898558s-.05559518.5332186.0701072.7701442c.75442901 1.4574168 1.70678326 2.8035005 2.83 4 .55861011.6019432 1.153023 1.1696409 1.78 1.7.63910575.5140811 1.3068439.9915138 2 1.43 1.658295 1.0415069 3.4805917 1.7954442 5.39 2.23v2.48c0 1.1045695.8954305 2 2 2v4h-5c-1.65685425 0-3 1.3431458-3 3v2c0 .5522847.44771525 1 1 1h20c.5522847 0 1-.4477153 1-1v-2c0-1.6568542-1.3431458-3-3-3h-5v-4c1.1045695 0 2-.8954305 2-2v-2.46c8.1863719-1.865846 13.9953683-9.1436887 14-17.54-.0027302-.9724158-.476617-1.8831896-1.2713829-2.4434995-.7947658-.5603099-1.8118124-.7006442-2.7286171-.3765005v-2.18c.33 0 .66.05 1 .05h10c5.5366546 0 10.025-4.4883454 10.025-10.025 0-5.53665462-4.4883454-10.025-10.025-10.025h-9.59l1.3-1.29c.3921222-.39212217.3921222-1.02787783 0-1.42s-1.0278778-.39212217-1.42 0l-3 3c-.1893127.1877666-.2957983.44336246-.2957983.71s.1064856.5222334.2957983.71l3 3c.1877666.18931265.4433625.29579832.71.29579832s.5222334-.10648567.71-.29579832c.1893127-.1877666.2957983-.44336246.2957983-.71s-.1064856-.5222334-.2957983-.71l-1.3-1.29h9.59c4.418278 0 8 3.581722 8 8s-3.581722 8-8 8h-10c-4.418278 0-8-3.581722-8-8-.0046394-1.231945.2796349-2.4478167.83-3.55.1607695-.326898.1349287-.71473377-.0677885-1.01741327-.2027173-.3026795-.5515133-.47421854-.9150001-.45000001-.3634867.02421853-.6864419.24051525-.8472114.56741328-.2098668.4705436-.3869556.9550317-.53 1.45h-3.47c-.5522847 0-1 .4477153-1 1s.4477153 1 1 1h3.06c-.040214.3318124-.0602509.6657597-.06 1 0 .34 0 .67.05 1h-3.05c-.5522847 0-1 .4477153-1 1s.4477153 1 1 1h3.46c.2243504.696553.5227215 1.36705.89 2h-4.35c-.5522847 0-1 .4477153-1 1s.4477153 1 1 1h5.87c.812705.8211647 1.7596426 1.4975487 2.8 2h-8.67c-.5522847 0-1 .4477153-1 1s.4477153 1 1 1h10v2h-26v-2h5c.5522847 0 1-.4477153 1-1s-.4477153-1-1-1h-5v-2h5c.5522847 0 1-.4477153 1-1s-.4477153-1-1-1h-5v-2h5c.5522847 0 1-.4477153 1-1s-.4477153-1-1-1h-4.95c.05207573-.6736086.15571268-1.3422342.31-2h4.64c.5522847 0 1-.4477153 1-1s-.4477153-1-1-1h-4c1.43770465-3.45158159 4.2919627-6.11700734 7.8337293-7.31546456 3.5417666-1.19845723 7.4280751-.81389349 10.6662707 1.05546456.3108211.1786328.693331.17787526 1.0034421-.00198728s.50071-.51150468.5-.87000001c-.00071-.35849534-.192621-.68937992-.5034421-.86801271-4.6425044-2.68035265-10.3625215-2.67943649-15.0041671.00240318-4.64164553 2.68183967-7.49927116 7.63689482-7.4958329 12.99759682v10.18c-.91680471-.3241437-1.93385127-.1838094-2.72861714.3765005-.79476588.5603099-1.26865265 1.4710837-1.27138286 2.4434995zm28 29v1h-18v-1c0-.5522847.4477153-1 1-1h16c.5522847 0 1 .4477153 1 1zm-8-3h-2v-4h2zm2-6h-6v-2.14c.6637382.0818322 1.3313341.1285639 2 .14h2c.6684805.0005018 1.3363753-.0395719 2-.12zm10-20c-.0040166.6705248-.0642273 1.3395332-.18 2h-14.82c-.5522847 0-1 .4477153-1 1s.4477153 1 1 1h14.3c-1.6934524 4.7898174-6.219636 7.9941951-11.3 8h-2c-5.080364-.0058049-9.60654755-3.2101826-11.3-8h6.3c.5522847 0 1-.4477153 1-1s-.4477153-1-1-1h-6.82c-.11577269-.6604668-.17598345-1.3294752-.18-2z" fill="#428dff"/><path id="Shape" d="m16 15h-1c-.5522847 0-1 .4477153-1 1s.4477153 1 1 1h1c.5522847 0 1-.4477153 1-1s-.4477153-1-1-1z" fill="#428dff"/><path id="Shape" d="m16 19h-1c-.5522847 0-1 .4477153-1 1s.4477153 1 1 1h1c.5522847 0 1-.4477153 1-1s-.4477153-1-1-1z" fill="#428dff"/><path id="Shape" d="m16 11h-1c-.5522847 0-1 .4477153-1 1s.4477153 1 1 1h1c.5522847 0 1-.4477153 1-1s-.4477153-1-1-1z" fill="#428dff"/><path id="Shape" d="m16 23h-1c-.5522847 0-1 .4477153-1 1s.4477153 1 1 1h1c.5522847 0 1-.4477153 1-1s-.4477153-1-1-1z" fill="#428dff"/></g></g></g></svg>