<svg id="Capa_1" enable-background="new 0 0 512 512" height='24px' width='24px' viewBox="0 0 512 512" xmlns="http://www.w3.org/2000/svg" xmlns:xlink="http://www.w3.org/1999/xlink"><linearGradient id="SVGID_1_" gradientUnits="userSpaceOnUse" x1="256" x2="256" y1="451" y2="61"><stop offset="0" stop-color="#5558ff"/><stop offset="1" stop-color="#00c0ff"/></linearGradient><path d="m407 61c-57.891 0-105 47.109-105 105 0 29.76 12.576 56.528 32.54 75.654l-48.102 65.942c-9.324-4.168-19.584-6.596-30.438-6.596-20.565 0-39.205 8.342-52.767 21.795l-58.845-38.564c3.565-8.728 5.612-18.235 5.612-28.231 0-41.353-33.647-75-75-75s-75 33.647-75 75 33.647 75 75 75c20.565 0 39.205-8.342 52.767-21.795l58.845 38.564c-3.565 8.728-5.612 18.235-5.612 28.231 0 41.353 33.647 75 75 75s75-33.647 75-75c0-19.682-7.784-37.478-20.231-50.872l48.318-66.244c14.432 7.482 30.566 12.116 47.913 12.116 57.891 0 105-47.109 105-105s-47.109-105-105-105zm-332 240c-24.814 0-45-20.186-45-45s20.186-45 45-45 45 20.186 45 45-20.186 45-45 45zm181 120c-24.814 0-45-20.186-45-45s20.186-45 45-45 45 20.186 45 45-20.186 45-45 45zm151-180c-41.353 0-75-33.647-75-75s33.647-75 75-75 75 33.647 75 75-33.647 75-75 75z" fill="url(#SVGID_1_)"/></svg>