<?xml version="1.0" encoding="iso-8859-1"?>
<!-- Generator: Adobe Illustrator 19.0.0, SVG Export Plug-In . SVG Version: 6.00 Build 0)  -->
<svg fill="#fff" height="30px" width="30px" version="1.1" id="Capa_1" xmlns="http://www.w3.org/2000/svg" xmlns:xlink="http://www.w3.org/1999/xlink" x="0px" y="0px"
	 viewBox="0 0 504.155 504.155" style="enable-background:new 0 0 504.155 504.155;" xml:space="preserve">
<g>
	<g>
		<path d="M252.557,71.799c-56.889,0-103.213,46.324-103.213,103.213s46.324,103.213,103.213,103.213
			c56.889,0,103.213-46.324,103.213-103.213S309.446,71.799,252.557,71.799z M260.684,262.783v-32.508H244.43v32.508
			c-42.26-4.063-75.581-37.384-78.832-78.832h32.508v-16.254h-32.508c4.063-42.26,37.384-75.581,78.832-78.832v32.508h16.254V88.866
			c42.26,4.063,75.581,37.384,78.832,78.832h-32.508v16.254h32.508C336.265,225.399,302.132,258.72,260.684,262.783z"/>
	</g>
</g>
<g>
	<g>
		<path d="M242.805,0.282C153.408,5.158,81.078,79.113,77.827,168.51c-1.625,39.01,9.752,75.581,31.695,107.276
			c33.321,47.136,65.016,92.648,92.648,141.41l49.575,86.959l49.575-86.959c28.444-49.575,61.765-96.711,92.648-140.597
			c21.13-30.07,32.508-65.016,32.508-101.587C427.287,75.863,343.58-5.407,242.805,0.282z M382.589,267.659
			c-31.695,44.698-65.016,91.835-93.46,142.222l-35.759,62.578l-35.759-62.578c-28.444-48.762-60.14-95.086-93.46-142.222
			c-20.318-28.444-30.07-62.578-29.257-97.524c3.251-81.27,69.079-149.536,150.349-152.787
			c87.771-4.876,166.603,63.39,166.603,157.663C411.846,208.332,401.281,240.028,382.589,267.659z"/>
	</g>
</g>
<g>
</g>
<g>
</g>
<g>
</g>
<g>
</g>
<g>
</g>
<g>
</g>
<g>
</g>
<g>
</g>
<g>
</g>
<g>
</g>
<g>
</g>
<g>
</g>
<g>
</g>
<g>
</g>
<g>
</g>
</svg>
