<svg id="Filled" height="20pt" viewBox="0 0 512 512" width="20pt" xmlns="http://www.w3.org/2000/svg"><path d="m24 80h464v352h-464z" fill="#dcdee0"/><path d="m72 128h368v256h-368z" fill="#e9eef2"/><path d="m168 200 104 120 72-48 96 112h-368z" fill="#3dc285"/><circle cx="336" cy="200" fill="#f7cc38" r="24"/><path d="m336 232a32 32 0 1 0 -32-32 32.036 32.036 0 0 0 32 32zm0-48a16 16 0 1 1 -16 16 16.019 16.019 0 0 1 16-16z"/><path d="m488 72h-464a8 8 0 0 0 -8 8v352a8 8 0 0 0 8 8h464a8 8 0 0 0 8-8v-352a8 8 0 0 0 -8-8zm-8 352h-448v-336h448z"/><path d="m72 392h368a8 8 0 0 0 8-8v-256a8 8 0 0 0 -8-8h-368a8 8 0 0 0 -8 8v256a8 8 0 0 0 8 8zm13.2-16 84.457-161.876 96.3 111.115a8 8 0 0 0 10.482 1.417l66.1-44.068 80.067 93.412zm346.8-240v226.374l-81.926-95.581a8 8 0 0 0 -10.512-1.449l-66.133 44.089-99.384-114.672a8 8 0 0 0 -13.138 1.538l-80.907 155.073v-215.372z"/></svg>