<svg fill="#fff" height="24pt" viewBox="-48 0 512 512.002" width="24pt" xmlns="http://www.w3.org/2000/svg"><g fill-rule="evenodd"><path d="m405.492188 260.324219h-65.800782v-250.324219c0-5.523438-4.476562-10-10-10h-228.445312c-.113282 0-.222656.0117188-.335938.015625-.113281.0039062-.222656.0117188-.335937.0195312-.425781.0273438-.847657.0742188-1.261719.1562498-.007812 0-.011719 0-.019531.003906-.421875.082032-.832031.203126-1.238281.339844-.109376.035156-.210938.074219-.316407.113282-.378906.140624-.753906.300781-1.113281.488281-.023438.015625-.050781.023437-.078125.039062-.378906.199219-.742187.4375-1.09375.6875-.089844.066407-.179687.132813-.269531.199219-.351563.269531-.691406.550781-1.007813.867188l-91.246093 91.242187c-.316407.316406-.597657.65625-.867188 1.007813-.066406.089843-.132812.179687-.199219.269531-.25.355469-.484375.714843-.6875 1.097656-.011719.023437-.019531.046875-.035156.070313-.1875.363281-.347656.738281-.492187 1.117187-.039063.105469-.078126.210937-.113282.316406-.136718.402344-.257812.816407-.339844 1.238281 0 .007813-.003906.015626-.003906.023438-.082031.414062-.128906.832031-.1562498 1.257812-.0078124.113282-.0117187.226563-.015625.335938-.0039062.113281-.0195312.226562-.0195312.335938v340.335937c0 5.523437 4.476562 10 10 10h64.070312v50.421875.023438c0 .328124.019532.65625.050782.984374.015625.140626.042968.273438.0625.414063.027344.183594.046875.367187.082031.550781.035156.175782.085937.34375.128906.515625.039063.144531.070313.292969.113281.4375.050782.164063.109376.320313.171876.480469.050781.148438.097656.296875.160156.441406.0625.144532.132812.285156.199218.425782.074219.152343.140626.3125.222657.460937.070312.132813.152343.257813.230469.386719.089843.148437.175781.304687.273437.453125.101563.152343.21875.292969.328125.4375.085938.117187.164062.234375.257812.347656.207032.253906.429688.496094.664063.726563.003906.007812.007813.011718.015625.019531.074219.074219.15625.136719.234375.207031.15625.148438.3125.296875.480469.433594.125.101562.253906.191406.382812.285156.132813.101562.265625.203125.402344.292969.144531.097656.292969.183593.445312.273437.128907.074219.257813.15625.390626.226563.152343.082031.308593.152343.464843.226562.140625.0625.277344.132813.421875.191407.152344.0625.304688.113281.460938.167968.152344.058594.304687.113282.460937.160156.152344.046876.3125.082032.46875.121094.160157.039063.316407.085938.476563.117188.183594.035156.363281.058594.546875.082031.140625.019531.277343.046875.417969.0625.328124.03125.65625.050781.984374.050781h321.425782c5.523437 0 10-4.480468 10-10v-231.679687c-.003906-5.523438-4.480469-10-10.003906-10zm-10 118.40625-32.640626-36.078125c-1.8125-2-4.351562-3.183594-7.046874-3.285156-2.6875-.101563-5.320313.898437-7.269532 2.761718l-79.878906 76.207032-49.558594-52.148438c-1.863281-1.960938-4.4375-3.082031-7.144531-3.113281-.03125 0-.066406 0-.101563 0-2.667968 0-5.226562 1.066406-7.105468 2.960937l-110.675782 111.671875v-197.382812h301.421876zm-332.796876-316.039063 28.550782-28.550781v57.101563h-57.101563zm-42.691406 368.886719v-320.335937h81.242188c5.523437 0 10-4.476563 10-10v-81.242188h208.445312v240.324219h-235.621094c-5.523437 0-10 4.476562-10 10v161.253906zm88.058594 60.421875 103.636719-104.566406 42.484375 44.710937-5.804688 5.539063c-3.996094 3.8125-4.144531 10.144531-.332031 14.140625 1.964844 2.058593 4.597656 3.097656 7.234375 3.097656 2.480469 0 4.964844-.917969 6.902344-2.765625l13.011718-12.417969 79.714844-76.050781 40.582032 44.855469v83.457031zm0 0"/><path d="m153.0625 294.628906c-21.128906 0-38.320312 17.191406-38.320312 38.320313 0 21.132812 17.191406 38.324219 38.320312 38.324219 21.132812 0 38.324219-17.191407 38.324219-38.324219 0-21.128907-17.191407-38.320313-38.324219-38.320313zm0 56.644532c-10.101562 0-18.320312-8.21875-18.320312-18.324219 0-10.101563 8.21875-18.320313 18.320312-18.320313 10.105469 0 18.324219 8.21875 18.324219 18.320313 0 10.105469-8.21875 18.324219-18.324219 18.324219zm0 0"/><path d="m226.339844 462.53125c-5.507813 0-10 4.492188-10 10s4.492187 10 10 10c5.507812 0 10-4.492188 10-10s-4.492188-10-10-10zm0 0"/></g></svg>