<?xml version="1.0" encoding="iso-8859-1"?>
<!-- Generator: Adobe Illustrator 19.0.0, SVG Export Plug-In . SVG Version: 6.00 Build 0)  -->
<svg fill="#5585ff" height="30px" width="30px"  version="1.1" id="Layer_1" xmlns="http://www.w3.org/2000/svg" xmlns:xlink="http://www.w3.org/1999/xlink" x="0px" y="0px"
	 viewBox="0 0 512 512" style="enable-background:new 0 0 512 512;" xml:space="preserve">
<g>
	<g>
		<path d="M256,0c-70.583,0-128,57.417-128,128c0,66.983,51.734,122.01,117.333,127.46v245.874c0,5.896,4.771,10.667,10.667,10.667
			s10.667-4.771,10.667-10.667V255.46C332.266,250.01,384,194.983,384,128C384,57.417,326.583,0,256,0z M256,64
			c-35.292,0-64,28.708-64,64c0,5.896-4.771,10.667-10.667,10.667c-5.896,0-10.667-4.771-10.667-10.667
			c0-47.052,38.281-85.333,85.333-85.333c5.896,0,10.667,4.771,10.667,10.667C266.667,59.229,261.896,64,256,64z"/>
	</g>
</g>
<g>
</g>
<g>
</g>
<g>
</g>
<g>
</g>
<g>
</g>
<g>
</g>
<g>
</g>
<g>
</g>
<g>
</g>
<g>
</g>
<g>
</g>
<g>
</g>
<g>
</g>
<g>
</g>
<g>
</g>
</svg>
