<?xml version="1.0"?>
<svg fill="#fff" xmlns="http://www.w3.org/2000/svg" id="Layer_1" data-name="Layer 1" viewBox="0 0 512 512" width="24px" height="24px"><title>b2</title><polygon points="367 256.712 405.336 240.062 367 220.702 367 256.712"/><polygon points="279 294.803 320 277.16 320 196.924 279 176.409 279 294.803"/><path d="M332,156.9V271.948l23-10.024V156.9a5.709,5.709,0,0,1,5.756-5.9h14.652l-32.192-45.069L311.023,151h14.652A6.2,6.2,0,0,1,332,156.9Z"/><path d="M413,340.272,305.275,386.053a6.319,6.319,0,0,1-2.415.48,5.642,5.642,0,0,1-4.785-2.673L262,329.435V474.407l151-85.794Z"/><path d="M250,330.9,214.447,383.86a6.212,6.212,0,0,1-5.116,2.673,7.054,7.054,0,0,1-2.559-.48L98,339.857v48.756l152,85.794Z"/><path d="M244,88.682V300.015l11.5,5.012,11.5-5.012V88.682A5.783,5.783,0,0,1,273.053,83h14.652L255.513,37.931,223.32,83h14.652A5.761,5.761,0,0,1,244,88.682Z"/><path d="M217,208.555A6.181,6.181,0,0,1,211.661,212H191v65.16L232,294.8V176.409l-24.855,12.546,9.405,13.272A6.169,6.169,0,0,1,217,208.555Z"/><path d="M156,205.62v56.3l23,10.024V205.62c0-3.314,3.037-5.62,6.351-5.62H200L167.81,154.931,135.617,200h14.652A5.461,5.461,0,0,1,156,205.62Z"/><polygon points="265.494 313.775 305.02 373.062 457.025 308.379 417.103 247.929 265.494 313.775"/><polygon points="246.287 314.103 93.978 247.953 54.911 308.352 206.98 373.062 246.287 314.103"/><polygon points="144 220.702 105.664 240.062 144 256.712 144 220.702"/></svg>
