<?xml version="1.0" encoding="iso-8859-1"?>
<!-- Generator: Adobe Illustrator 19.0.0, SVG Export Plug-In . SVG Version: 6.00 Build 0)  -->
<svg fill="#fff" height="24px" width="24px" version="1.1" id="Capa_1" xmlns="http://www.w3.org/2000/svg" xmlns:xlink="http://www.w3.org/1999/xlink" x="0px" y="0px"
	 viewBox="0 0 512 512" style="enable-background:new 0 0 512 512;" xml:space="preserve">
<g>
	<g>
		<path d="M256,0C114.844,0,0,114.844,0,256s114.844,256,256,256s256-114.844,256-256S397.156,0,256,0z M405.333,266.667
			c0,5.896-4.771,10.667-10.667,10.667H175.083l45.792,45.792c2,2,3.125,4.708,3.125,7.542V352c0,4.313-2.594,8.208-6.583,9.854
			c-4,1.667-8.573,0.74-11.625-2.313l-96-96c-4.167-4.167-4.167-10.917,0-15.083l96-96c2.042-2.042,4.771-3.125,7.542-3.125
			c1.375,0,2.76,0.26,4.083,0.813c3.99,1.646,6.583,5.542,6.583,9.854v21.333c0,2.833-1.125,5.542-3.125,7.542l-45.792,45.792
			h219.583c5.896,0,10.667,4.771,10.667,10.667V266.667z"/>
	</g>
</g>
<g>
</g>
<g>
</g>
<g>
</g>
<g>
</g>
<g>
</g>
<g>
</g>
<g>
</g>
<g>
</g>
<g>
</g>
<g>
</g>
<g>
</g>
<g>
</g>
<g>
</g>
<g>
</g>
<g>
</g>
</svg>
